# AST/ASF file generated using VICON BodyLanguage
# -----------------------------------------------
:version 1.10
:name VICON
:units
  mass 1.0
  length 0.45
  angle deg
:documentation
   .ast/.asf automatically generated from VICON data using
   VICON BodyBuilder and BodyLanguage model FoxedUp or BRILLIANT.MOD
:root
   order TX TY TZ RX RY RZ
   axis XYZ
   position 0 0 0  
   orientation 0 0 0 
:bonedata
  begin
     id 1 
     name lhipjoint
     direction 0.627457 -0.725269 0.283342 
     length 2.53237 
     axis 0 0 0  XYZ
  end
  begin
     id 2 
     name lfemur
     direction 0.34202 -0.939693 0  
     length 7.32496  
     axis 0 0 20  XYZ
    dof rx ry rz
    limits (-160.0 20.0)
           (-70.0 70.0)
           (-60.0 70.0)
  end
  begin
     id 3 
     name ltibia
     direction 0.34202 -0.939693 0   
     length 7.69674   
     axis 0 0 20   XYZ
    dof rx
    limits (-10.0 170.0)
  end
  begin
     id 4 
     name lfoot
     direction 0.127289 -0.349722 0.928166   
     length 1.8612   
     axis -90 7.62852e-016 20   XYZ
    dof rx rz
    limits (-45.0 90.0)
           (-70.0 20.0)
  end
  begin
     id 5 
     name ltoes
     direction 1.53561e-011 -4.21864e-011 1   
     length 0.925608   
     axis -90 7.62852e-016 20   XYZ
    dof rx
    limits (-90.0 20.0)
  end
  begin
     id 6 
     name rhipjoint
     direction -0.609094 -0.738725 0.288599   
     length 2.48624  
     axis 0 0 0  XYZ 
  end
  begin
     id 7 
     name rfemur
     direction -0.34202 -0.939693 0   
     length 7.44259   
     axis 0 0 -20   XYZ
    dof rx ry rz
    limits (-160.0 20.0)
           (-70.0 70.0)
           (-70.0 60.0)
  end
  begin
     id 8 
     name rtibia
     direction -0.34202 -0.939693 0   
     length 7.7781   
     axis 0 0 -20   XYZ
    dof rx
    limits (-10.0 170.0)
 end
 begin
     id 9 
     name rfoot
     direction -0.107015 -0.294021 0.949789   
     length 2.14741  
     axis -90 -7.62852e-016 -20   XYZ
    dof rx rz
    limits (-45.0 90.0)
           (-20.0 70.0)
  end
  begin
     id 10 
     name rtoes
     direction -1.53497e-011 -4.21924e-011 1   
     length 1.0706   
     axis -90 -7.62852e-016 -20   XYZ
    dof rx
    limits (-90.0 20.0)
  end
  begin
     id 11 
     name lowerback
     direction -0.0142066 0.998112 -0.0597545   
     length 1.86627   
     axis 0 0 0   XYZ
    dof rx ry rz
    limits (-20.0 45.0)
           (-30.0 30.0)
           (-30.0 30.0)
  end
  begin
     id 12 
     name upperback
     direction 0.00547294 0.999744 0.0219437   
     length 1.86272   
     axis 0 0 0   XYZ
    dof rx ry rz
    limits (-20.0 45.0)
           (-30.0 30.0)
           (-30.0 30.0)
  end
  begin
     id 13 
     name thorax
     direction 0.0116162 0.998704 0.0495538   
     length 1.8703   
     axis 0 0 0   XYZ
    dof rx ry rz
    limits (-20.0 45.0)
           (-30.0 30.0)
           (-30.0 30.0)
  end
  begin
     id 14 
     name lowerneck
     direction -0.0106574 0.998739 0.0490586   
     length 1.8074   
     axis 0 0 0   XYZ
    dof rx ry rz
    limits (-20.0 45.0)
           (-30.0 30.0)
           (-30.0 30.0)
  end
  begin
     id 15 
     name upperneck
     direction 0.030527 0.976587 -0.212944   
     length 1.80681   
     axis 0 0 0   XYZ
    dof rx ry rz
    limits (-20.0 45.0)
           (-30.0 30.0)
           (-30.0 30.0)
  end
  begin
     id 16
     name head
     direction 0.00869225 0.997035 -0.0764531  
     length 1.8313  
     axis 0 0 0   XYZ
    dof rx ry rz
    limits (-20.0 45.0)
           (-30.0 30.0)
           (-30.0 30.0)
  end
  begin
     id 17 
     name lclavicle
     direction 0.915958 0.399447 0.0382386  
     length 3.78965  
     axis 0 0 0   XYZ
    dof ry rz
    limits (-20.0 10.0)
           (0.0 20.0)
  end
  begin
     id 18 
     name lhumerus
     direction 1 -4.48967e-011 3.19303e-027   
     length 4.78095   
     axis -180 -30 -90   XYZ
    dof rx ry rz
    limits (-60.0 90.0)
           (-90.0 90.0)
           (-90.0 90.0)
  end
  begin
     id 19
     name lradius
     direction 1 -4.48967e-011 -3.77974e-027   
     length 3.58615   
     axis -180 -30 -90   XYZ
    dof rx
    limits (-10.0 170.0)
  end
  begin
     id 20
     name lwrist
     direction 1 -4.48927e-011 1.2807e-027   
     length 1.79307   
     axis 1.91374e-015 90 90   XYZ
    dof ry
    limits (-180.0 0.0)
 end
  begin
     id 21 
     name lhand
     direction 1 -4.49036e-011 2.5614e-027   
     length 0.659812   
     axis -1.63439e-015 90 90   XYZ
    dof rx rz
    limits (-90.0 90.0)
           (-45.0 45.0)
  end
  begin
     id 22 
     name lfingers
     direction 1 -4.49052e-011 5.1228e-027   
     length 0.531957   
     axis -3.26879e-015 90 90   XYZ
    dof rx
    limits (0.0 90.0)
  end
  begin
     id 23
     name lthumb
     direction 0.707107 -6.35012e-011 0.707107   
     length 0.763787   
     axis -90 45 2.85299e-015   XYZ
    dof rx rz
    limits (-45.0 45.0)
           (-45.0 45.0)
  end
  begin
     id 24 
     name rclavicle
     direction -0.895351 0.435135 0.0948887   
     length 3.70497  
     axis 0 0 0   XYZ 
    dof ry rz
    limits (-10.0 20.0)
           (-20.0 0.0)
  end
  begin
     id 25 
     name rhumerus
     direction -1 -4.48971e-011 2.38946e-027  
     length 4.48913   
     axis -180 30 90   XYZ
    dof rx ry rz
    limits (-90.0 60.0)
           (-90.0 90.0)
           (-90.0 90.0)
  end
  begin
     id 26 
     name rradius
     direction -1 -4.4895e-011 4.38668e-027   
     length 3.7051   
     axis -180 30 90   XYZ
    dof rx
    limits (-10.0 170.0)
  end
  begin
     id 27 
     name rwrist
     direction -1 -4.49007e-011 1.2807e-027   
     length 1.85255   
     axis 1.91374e-015 -90 -90   XYZ
    dof ry
    limits (-180.0 0.0)
  end
  begin
     id 28
     name rhand
     direction -1 -4.48851e-011 2.5614e-027   
     length 0.449136   
     axis -1.63439e-015 -90 -90   XYZ
    dof rx rz
    limits (-90.0 90.0)
           (-45.0 45.0)
  end
  begin
     id 29
     name rfingers
     direction -1 -4.49128e-011 5.1228e-027   
     length 0.362105   
     axis -3.26879e-015 -90 -90   XYZ
    dof rx
    limits (0.0 90.0)
  end
  begin
     id 30
     name rthumb
     direction -0.707107 -6.34851e-011 0.707107   
     length 0.519912   
     axis -90 -45 -2.85299e-015   XYZ
    dof rx rz
    limits (-45.0 45.0)
           (-45.0 45.0)
  end
:hierarchy
  begin
    root lhipjoint rhipjoint lowerback
    lhipjoint lfemur
    lfemur ltibia
    ltibia lfoot
    lfoot ltoes
    rhipjoint rfemur
    rfemur rtibia
    rtibia rfoot
    rfoot rtoes
    lowerback upperback
    upperback thorax
    thorax lowerneck lclavicle rclavicle
    lowerneck upperneck
    upperneck head
    lclavicle lhumerus
    lhumerus lradius
    lradius lwrist
    lwrist lhand lthumb
    lhand lfingers
    rclavicle rhumerus
    rhumerus rradius
    rradius rwrist
    rwrist rhand rthumb
    rhand rfingers
  end

#!OML:ASF I:\Actors\actors\Patient Classification 2\Patient 1\Session 1\actor1.ASF
:FULLY-SPECIFIED
:DEGREES
28
root -0.612098 18.6129 6.0103 -0.391845 -3.10454 -2.84809
lowerback 2.47244 0.81317 0.580739
upperback -1.91059 1.12364 0.492309
thorax -3.34828 0.552224 0.120704
lowerneck -8.09139 4.60676 4.08345
upperneck 24.1774 5.07023 2.89681
head 8.9309 3.05019 0.80466
rclavicle 7.88927e-015 -4.37326e-015
rhumerus -48.9438 -4.41854 -86.605
rradius 40.8871
rwrist 20.2752
rhand -2.48744 -37.0987
rfingers 7.12502
rthumb 23.2058 -65.7207
lclavicle 7.88927e-015 -4.37326e-015
lhumerus -43.1755 3.69865 89.6666
lradius 34.8497
lwrist -0.544905
lhand -7.83248 -25.1004
lfingers 7.12502
lthumb 18.07 4.08023
rfemur 9.44658 3.04813 16.5431
rtibia 1.90833e-014
rfoot -16.2835 -8.66894
rtoes -6.06926
lfemur -2.30458 -4.71824 -12.1344
ltibia 23.2365
lfoot -24.3299 13.4577
ltoes -55.6102
29
root -0.611608 18.6139 6.01087 -0.385107 -3.10318 -2.83047
lowerback 2.45626 0.808205 0.55059
upperback -1.90412 1.11578 0.497731
thorax -3.33314 0.549132 0.143886
lowerneck -8.07474 4.60785 4.00287
upperneck 24.1414 5.07513 2.94827
head 8.91096 3.0501 0.834449
rclavicle -1.28589e-014 -2.98177e-015
rhumerus -48.9003 -4.32725 -86.621
rradius 40.8505
rwrist 20.2756
rhand -2.43183 -37.1031
rfingers 7.12502
rthumb 23.2592 -65.7184
lclavicle -1.28589e-014 -2.98177e-015
lhumerus -43.1767 3.37939 89.9115
lradius 35.216
lwrist -0.329756
lhand -7.87036 -23.6851
lfingers 7.12502
lthumb 18.0336 5.49885
rfemur 9.43629 3.04678 16.5206
rtibia -4.77083e-015
rfoot -16.2834 -8.70944
rtoes -6.16719
lfemur -2.30867 -4.71073 -12.1558
ltibia 23.2358
lfoot -24.3304 13.4573
ltoes -55.6071
30
root -0.611246 18.6142 6.01113 -0.384519 -3.09048 -2.82226
lowerback 2.45004 0.808453 0.546779
upperback -1.89553 1.1157 0.493422
thorax -3.32075 0.549167 0.141767
lowerneck -8.05733 4.60628 3.94265
upperneck 24.1143 5.07493 2.99049
head 8.89495 3.04864 0.857435
rclavicle 1.19271e-015 -5.56597e-015
rhumerus -48.8666 -4.28062 -86.6424
rradius 40.8256
rwrist 20.2352
rhand -2.47464 -37.0466
rfingers 7.12502
rthumb 23.2181 -65.667
lclavicle 1.19271e-015 -5.56597e-015
lhumerus -43.1653 3.19105 90.0219
lradius 35.3259
lwrist -0.185491
lhand -7.90951 -23.2802
lfingers 7.12502
lthumb 17.9959 5.90719
rfemur 9.43429 3.03407 16.5124
rtibia 2.38542e-014
rfoot -16.3025 -8.72584
rtoes -6.30411
lfemur -2.31005 -4.75166 -12.1713
ltibia 23.2367
lfoot -24.3512 13.4646
ltoes -55.6013
31
root -0.611095 18.6143 6.01143 -0.386307 -3.09558 -2.81909
lowerback 2.45881 0.816744 0.55214
upperback -1.8939 1.12668 0.481407
thorax -3.32365 0.554355 0.125715
lowerneck -8.08066 4.60044 3.93566
upperneck 24.145 5.06104 3.01263
head 8.90905 3.04422 0.866011
rclavicle -4.32357e-015 2.18663e-015
rhumerus -48.8466 -4.30239 -86.6526
rradius 40.7992
rwrist 20.2115
rhand -2.53887 -36.9537
rfingers 7.12502
rthumb 23.1565 -65.5819
lclavicle -4.32357e-015 2.18663e-015
lhumerus -43.1488 3.22397 89.956
lradius 35.1808
lwrist -0.198483
lhand -7.94041 -23.8352
lfingers 7.12502
lthumb 17.9662 5.35495
rfemur 9.43744 3.03919 16.5107
rtibia -2.06736e-014
rfoot -16.3418 -8.71681
rtoes -6.44729
lfemur -2.30835 -4.75091 -12.1765
ltibia 23.2405
lfoot -24.3306 13.4659
ltoes -55.6045
32
root -0.610669 18.6136 6.01178 -0.383537 -3.10296 -2.80226
lowerback 2.46335 0.822774 0.539114
upperback -1.89489 1.13397 0.472066
thorax -3.32728 0.558167 0.122943
lowerneck -8.08937 4.6006 3.93619
upperneck 24.1443 5.05848 3.0222
head 8.91023 3.04406 0.869138
rclavicle -5.8393e-015 -2.5842e-015
rhumerus -48.8347 -4.33721 -86.6429
rradius 40.7766
rwrist 20.2284
rhand -2.5127 -36.8615
rfingers 7.12502
rthumb 23.1816 -65.4865
lclavicle -5.8393e-015 -2.5842e-015
lhumerus -43.064 3.27004 89.8433
lradius 34.7086
lwrist -0.127951
lhand -8.01648 -25.3035
lfingers 7.12502
lthumb 17.893 3.89337
rfemur 9.43591 3.0469 16.4881
rtibia 6.36111e-015
rfoot -16.3615 -8.67499
rtoes -6.45413
lfemur -2.31613 -4.70109 -12.1882
ltibia 23.2458
lfoot -24.2944 13.4224
ltoes -55.5726
33
root -0.610103 18.6129 6.01159 -0.377853 -3.09941 -2.78346
lowerback 2.47345 0.82716 0.521526
upperback -1.89331 1.13911 0.468692
thorax -3.33162 0.561084 0.128907
lowerneck -8.08101 4.60703 3.91906
upperneck 24.1102 5.07191 3.02108
head 8.89626 3.04832 0.871919
rclavicle -1.36664e-015 2.5842e-015
rhumerus -48.8496 -4.35067 -86.6369
rradius 40.7923
rwrist 20.2629
rhand -2.53895 -36.8198
rfingers 7.12502
rthumb 23.1564 -65.448
lclavicle -1.36664e-015 2.5842e-015
lhumerus -43.04 2.99717 90.066
lradius 35.0324
lwrist 0.0425412
lhand -8.00727 -23.775
lfingers 7.12502
lthumb 17.9018 5.42103
rfemur 9.42779 3.04359 16.4622
rtibia 1.11319e-014
rfoot -16.3404 -8.63113
rtoes -6.38638
lfemur -2.32661 -4.69461 -12.2082
ltibia 23.2446
lfoot -24.3049 13.4132
ltoes -55.5229
34
root -0.609747 18.6133 6.01133 -0.365819 -3.08755 -2.77657
lowerback 2.48076 0.832632 0.519973
upperback -1.89356 1.14623 0.462586
thorax -3.33591 0.564582 0.123004
lowerneck -8.08569 4.60253 3.90562
upperneck 24.0922 5.06607 3.02963
head 8.89014 3.04507 0.876145
rclavicle -1.86361e-015 -1.19271e-015
rhumerus -48.8672 -4.36345 -86.6374
rradius 40.8092
rwrist 20.2556
rhand -2.53973 -36.8586
rfingers 7.12502
rthumb 23.1556 -65.4869
lclavicle -1.86361e-015 -1.19271e-015
lhumerus -43.0552 2.9855 90.0902
lradius 35.1691
lwrist -0.0019096
lhand -7.96109 -23.1878
lfingers 7.12502
lthumb 17.9463 6.00419
rfemur 9.41463 3.03111 16.4536
rtibia 4.77083e-015
rfoot -16.3117 -8.64271
rtoes -6.38627
lfemur -2.33948 -4.72093 -12.2196
ltibia 23.2394
lfoot -24.315 13.4392
ltoes -55.5024
35
root -0.609937 18.6137 6.01176 -0.350853 -3.08249 -2.77581
lowerback 2.46807 0.836694 0.522633
upperback -1.89684 1.1513 0.450547
thorax -3.33181 0.566906 0.109047
lowerneck -8.07829 4.59017 3.90067
upperneck 24.0734 5.04577 3.0486
head 8.88153 3.03678 0.880661
rclavicle 1.10822e-014 -1.19271e-014
rhumerus -48.8774 -4.37491 -86.6491
rradius 40.8126
rwrist 20.2207
rhand -2.48688 -36.9481
rfingers 7.12502
rthumb 23.2063 -65.57
lclavicle 1.10822e-014 -1.19271e-014
lhumerus -43.0598 2.99305 90.0569
lradius 35.1546
lwrist -0.0379652
lhand -7.94414 -23.0686
lfingers 7.12502
lthumb 17.9626 6.12186
rfemur 9.4026 3.02514 16.4521
rtibia 1.43125e-014
rfoot -16.2913 -8.6781
rtoes -6.38722
lfemur -2.35357 -4.76486 -12.2246
ltibia 23.2373
lfoot -24.3384 13.4517
ltoes -55.4947
36
root -0.610054 18.6134 6.01215 -0.353473 -3.08611 -2.78799
lowerback 2.47258 0.841817 0.52832
upperback -1.88807 1.15839 0.45207
thorax -3.32522 0.570345 0.107058
lowerneck -8.08743 4.5807 3.86
upperneck 24.0397 5.03051 3.08724
head 8.86897 3.02955 0.898312
rclavicle -5.479e-015 9.93923e-015
rhumerus -48.8877 -4.38239 -86.653
rradius 40.824
rwrist 20.2154
rhand -2.52057 -36.9774
rfingers 7.12502
rthumb 23.174 -65.6033
lclavicle -5.479e-015 9.93923e-015
lhumerus -43.0598 3.05057 90.0271
lradius 35.1616
lwrist -0.111201
lhand -7.93331 -23.002
lfingers 7.12502
lthumb 17.973 6.18755
rfemur 9.40833 3.02881 16.4655
rtibia -2.06736e-014
rfoot -16.2778 -8.70116
rtoes -6.38279
lfemur -2.34456 -4.77898 -12.2124
ltibia 23.2318
lfoot -24.3626 13.4305
ltoes -55.4834
37
root -0.609758 18.6127 6.01226 -0.359145 -3.08381 -2.80458
lowerback 2.48652 0.846774 0.534435
upperback -1.87889 1.16563 0.462686
thorax -3.32371 0.573951 0.114016
lowerneck -8.10584 4.5784 3.79487
upperneck 24.0195 5.02261 3.1529
head 8.86128 3.02662 0.9304
rclavicle -6.94504e-015 7.95139e-015
rhumerus -48.9054 -4.37945 -86.6503
rradius 40.8431
rwrist 20.1767
rhand -2.57262 -37.0095
rfingers 7.12502
rthumb 23.1241 -65.6418
lclavicle -6.94504e-015 7.95139e-015
lhumerus -43.063 3.0702 90.0439
lradius 35.1744
lwrist -0.097258
lhand -7.97905 -22.9854
lfingers 7.12502
lthumb 17.929 6.20822
rfemur 9.4161 3.02674 16.4835
rtibia 4.77083e-015
rfoot -16.2861 -8.70373
rtoes -6.32806
lfemur -2.33539 -4.74343 -12.1878
ltibia 23.2209
lfoot -24.3359 13.3989
ltoes -55.4694
38
root -0.609507 18.6126 6.01261 -0.344077 -3.07901 -2.78787
lowerback 2.46621 0.848712 0.516742
upperback -1.87597 1.16708 0.455114
thorax -3.30941 0.575035 0.116423
lowerneck -8.12962 4.57944 3.76487
upperneck 24.0323 5.02117 3.18153
head 8.8683 3.02645 0.945808
rclavicle 1.49461e-014 -1.47101e-014
rhumerus -48.9096 -4.38926 -86.655
rradius 40.8458
rwrist 20.1543
rhand -2.53316 -37.0618
rfingers 7.12502
rthumb 23.1619 -65.6893
lclavicle 1.49461e-014 -1.47101e-014
lhumerus -43.0685 3.01574 90.0826
lradius 35.1803
lwrist 0.0446656
lhand -8.04652 -22.9612
lfingers 7.12502
lthumb 17.8641 6.2383
rfemur 9.40416 3.02137 16.4623
rtibia -1.11319e-014
rfoot -16.3193 -8.67491
rtoes -6.27321
lfemur -2.35161 -4.72978 -12.203
ltibia 23.2104
lfoot -24.3152 13.4041
ltoes -55.4581
